<svg xmlns="http://www.w3.org/2000/svg" viewBox="0 0 48 48">
	<circle cx="24" cy="24" r="20" fill="#ffffff" />
	<path id="ProductHunt" fill="#D04B25" d="M 27.20,28.80 C 31.84,28.80 35.60,25.04 35.60,20.40 35.60,15.76 31.84,12.00 27.20,12.00 27.20,12.00 15.60,12.00 15.60,12.00 15.60,12.00 15.60,36.00 15.60,36.00 15.60,36.00 20.40,36.00 20.40,36.00 20.40,36.00 20.40,28.80 20.40,28.80 20.40,28.80 27.20,28.80 27.20,28.80M 24.00,0.00 C 37.25,0.00 48.00,10.75 48.00,24.00 48.00,37.25 37.25,48.00 24.00,48.00 10.75,48.00 0.00,37.25 0.00,24.00 0.00,10.75 10.75,0.00 24.00,0.00M 27.20,16.80 C 27.20,16.80 27.20,16.80 27.20,16.80 29.19,16.80 30.80,18.41 30.80,20.40 30.80,22.39 29.19,24.00 27.20,24.00 27.20,24.00 27.20,24.00 27.20,24.00 27.20,24.00 20.40,24.00 20.40,24.00 20.40,24.00 20.40,16.80 20.40,16.80 20.40,16.80 27.20,16.80 27.20,16.80" />
</svg>
