<svg xmlns="http://www.w3.org/2000/svg" viewBox="0 0 256 256">
	<path id="circle" fill="#ffffff" d="M 0.00,128.00 C 0.00,57.31 57.31,0.00 128.00,0.00 198.69,0.00 256.00,57.31 256.00,128.00 256.00,198.69 198.69,256.00 128.00,256.00 57.31,256.00 0.00,198.69 0.00,128.00 Z" />
	<path id="p" fill="#D04B25" d="M 96.00,76.80 C 96.00,76.80 144.26,76.80 144.26,76.80 163.55,76.80 179.20,92.45 179.20,112.00 179.20,131.04 163.55,146.69 144.26,147.20 144.26,147.20 115.20,147.20 115.20,147.20 115.20,147.20 115.20,179.20 115.20,179.20 115.20,179.20 96.00,179.20 96.00,179.20 96.00,179.20 96.00,76.80 96.00,76.80 96.00,76.80 96.00,76.80 96.00,76.80 Z M 144.49,128.00 C 153.06,128.00 160.00,120.83 160.00,112.00 160.00,103.17 153.06,96.00 144.49,96.00 144.49,96.00 115.20,96.00 115.20,96.00 115.20,96.00 115.20,128.00 115.20,128.00 115.20,128.00 144.49,128.00 144.49,128.00 144.49,128.00 144.49,128.00 144.49,128.00 Z" />
</svg>
